<svg width="18" height="20" viewBox="0 0 18 20" fill="none" xmlns="http://www.w3.org/2000/svg">
<path d="M6.25 1.74992C6.25 1.24366 6.66041 0.833252 7.16667 0.833252H10.8333C11.3396 0.833252 11.75 1.24366 11.75 1.74992V2.66659H16.3333C16.8396 2.66659 17.25 3.07699 17.25 3.58325C17.25 4.08951 16.8396 4.49992 16.3333 4.49992H1.66667C1.16041 4.49992 0.75 4.08951 0.75 3.58325C0.75 3.07699 1.16041 2.66659 1.66667 2.66659H6.25V1.74992Z" fill="#F44336"/>
<path d="M3.5 6.33325C4.00626 6.33325 4.41667 6.74366 4.41667 7.24992V16.4166C4.41667 16.9228 4.82707 17.3333 5.33333 17.3333H12.6667C13.1729 17.3333 13.5833 16.9228 13.5833 16.4166V7.24992C13.5833 6.74366 13.9937 6.33325 14.5 6.33325C15.0063 6.33325 15.4167 6.74366 15.4167 7.24992V16.4166C15.4167 17.9354 14.1855 19.1666 12.6667 19.1666H5.33333C3.81455 19.1666 2.58333 17.9354 2.58333 16.4166V7.24992C2.58333 6.74366 2.99374 6.33325 3.5 6.33325Z" fill="#F44336"/>
<path d="M6.25 9.08325C6.25 8.57699 6.66041 8.16659 7.16667 8.16659C7.67293 8.16659 8.08333 8.57699 8.08333 9.08325V14.5833C8.08333 15.0895 7.67293 15.4999 7.16667 15.4999C6.66041 15.4999 6.25 15.0895 6.25 14.5833V9.08325Z" fill="#F44336"/>
<path d="M10.8333 8.16659C10.3271 8.16659 9.91667 8.57699 9.91667 9.08325V14.5833C9.91667 15.0895 10.3271 15.4999 10.8333 15.4999C11.3396 15.4999 11.75 15.0895 11.75 14.5833V9.08325C11.75 8.57699 11.3396 8.16659 10.8333 8.16659Z" fill="#F44336"/>
</svg>
