<svg width="13" height="13" viewBox="0 0 13 13" fill="none" xmlns="http://www.w3.org/2000/svg">
<path fill-rule="evenodd" clip-rule="evenodd" d="M2.25734 0.656875C1.86681 0.26635 1.23365 0.26635 0.843125 0.656875C0.452601 1.0474 0.452601 1.68056 0.843125 2.07109L5.08575 6.31371L0.843114 10.5563C0.452589 10.9469 0.452589 11.58 0.843114 11.9706C1.23364 12.3611 1.8668 12.3611 2.25733 11.9706L6.49996 7.72792L10.7426 11.9706C11.1331 12.3611 11.7663 12.3611 12.1568 11.9706C12.5474 11.5801 12.5474 10.9469 12.1568 10.5564L7.91417 6.31371L12.1568 2.07106C12.5473 1.68054 12.5473 1.04737 12.1568 0.656847C11.7663 0.266322 11.1331 0.266323 10.7426 0.656847L6.49996 4.8995L2.25734 0.656875Z" fill="#002214"/>
</svg>
