<svg width="12" height="14" viewBox="0 0 12 14" fill="none" xmlns="http://www.w3.org/2000/svg">
<path d="M11.1633 7.04672C11.1753 6.96972 11.1863 6.89372 11.1863 6.81372C11.1863 5.98572 10.5143 5.31372 9.68628 5.31372H4.93628C4.93628 5.31372 5.43628 3.15972 5.43628 2.31372C5.43628 1.18772 4.70928 0.313721 3.70928 0.313721C3.20928 0.313721 3.18628 0.313721 3.18628 0.313721V1.67772L2.25228 4.76072C1.90328 5.40872 1.22728 5.81372 0.490279 5.81372H0.186279V12.3137H1.18628C1.82628 12.9537 2.69528 13.3137 3.60028 13.3137H8.68628C9.40828 13.3137 10.0113 12.8027 10.1533 12.1227L10.1543 12.1197C10.1553 12.1167 10.1553 12.1147 10.1563 12.1117L11.1513 7.12972C11.1533 7.11972 11.1553 7.11072 11.1573 7.10072L11.1673 7.05172L11.1633 7.04672Z" fill="#00F593"/>
</svg>
