<svg width="21" height="19" viewBox="0 0 21 19" fill="none" xmlns="http://www.w3.org/2000/svg">
<path d="M5.3794 0.994404C7.55518 0.450322 8.98378 1.13107 9.85363 2.00091C9.94838 2.09566 10.036 2.19208 10.1169 2.28864C10.2119 2.40206 10.3522 2.46758 10.5002 2.46758C10.6481 2.46758 10.7885 2.40205 10.8835 2.28864C10.9644 2.19207 11.052 2.09565 11.1467 2.00091C12.0166 1.13104 13.4453 0.450338 15.6215 0.994397C17.7952 1.53783 19.4357 3.17224 19.9832 5.22565C20.5343 7.29284 19.9644 9.72205 17.8535 11.833C15.5178 14.1687 13.5241 16.1634 12.2693 17.4189C11.2931 18.3958 9.71239 18.3962 8.73573 17.4197L3.14816 11.8331C1.03632 9.72155 0.466431 7.2923 1.01781 5.22519C1.5655 3.1719 3.20627 1.53782 5.3794 0.994404Z" fill="#010101"/>
</svg>
