<svg width="80" height="80" viewBox="0 0 80 80" fill="none" xmlns="http://www.w3.org/2000/svg">
<path d="M70 13.3333H10C8.15835 13.3333 6.66669 14.8249 6.66669 16.6666V59.9999C6.66669 61.8416 8.15835 63.3332 10 63.3332H23.3334V76.6632C23.3334 78.1482 25.1284 78.8916 26.1784 77.8416L40.6867 63.3332H70C71.8417 63.3332 73.3334 61.8416 73.3334 59.9999V16.6666C73.3334 14.8249 71.8417 13.3333 70 13.3333Z" fill="url(#paint0_linear)"/>
<path opacity="0.3" d="M73.3333 59.9999V46.5932C70.4067 44.8349 66.9967 43.8032 63.3333 43.8032C52.5467 43.8032 43.8033 52.5466 43.8033 63.3332H70C71.8417 63.3332 73.3333 61.8416 73.3333 59.9999Z" fill="url(#paint1_radial)"/>
<path d="M63.3334 80.0001C72.5381 80.0001 80 72.5382 80 63.3334C80 54.1287 72.5381 46.6667 63.3334 46.6667C54.1286 46.6667 46.6667 54.1287 46.6667 63.3334C46.6667 72.5382 54.1286 80.0001 63.3334 80.0001Z" fill="url(#paint2_linear)"/>
<path d="M69.2267 56.2616L70.405 57.4399C70.73 57.7649 70.73 58.2932 70.405 58.6182L58.62 70.4032C58.295 70.7282 57.7667 70.7282 57.4417 70.4032L56.2633 69.2249C55.9383 68.8999 55.9383 68.3716 56.2633 68.0466L68.0483 56.2616C68.3733 55.9366 68.9 55.9366 69.2267 56.2616Z" fill="white"/>
<path d="M70.405 69.2266L69.2267 70.4049C68.9017 70.7299 68.3733 70.7299 68.0483 70.4049L56.2633 58.62C55.9383 58.295 55.9383 57.7666 56.2633 57.4416L57.4417 56.2633C57.7667 55.9383 58.295 55.9383 58.62 56.2633L70.405 68.0483C70.73 68.3733 70.73 68.8999 70.405 69.2266Z" fill="white"/>
<defs>
<linearGradient id="paint0_linear" x1="21.1434" y1="7.65325" x2="59.3" y2="69.7349" gradientUnits="userSpaceOnUse">
<stop stop-color="#5A68FF"/>
<stop offset="1" stop-color="#3641B7"/>
</linearGradient>
<radialGradient id="paint1_radial" cx="0" cy="0" r="1" gradientUnits="userSpaceOnUse" gradientTransform="translate(62.88 62.6849) scale(19.06)">
<stop offset="0.612"/>
<stop offset="0.936" stop-opacity="0.098"/>
<stop offset="1" stop-opacity="0"/>
</radialGradient>
<linearGradient id="paint2_linear" x1="46.6667" y1="63.3334" x2="80" y2="63.3334" gradientUnits="userSpaceOnUse">
<stop stop-color="#F44F5A"/>
<stop offset="0.443" stop-color="#EE3D4A"/>
<stop offset="1" stop-color="#E52030"/>
</linearGradient>
</defs>
</svg>
